<svg xmlns="http://www.w3.org/2000/svg" width="100" height="100" viewBox="0 0 100 100"><path d="M39.07 85.648l2.717.892v2.885l-2.717.892-1.672-2.333 1.672-2.336zm7.462 2.335a6.761 6.761 0 0 1-6.754 6.754 6.761 6.761 0 0 1-6.754-6.754c0-3.725 3.029-6.756 6.754-6.756a6.764 6.764 0 0 1 6.754 6.756zm-1.21-1.505l-2.428-.6.186-2.612a5.74 5.74 0 0 0-2.977-1.017l-1.291 2.074-2.426-.984a5.77 5.77 0 0 0-2.013 2.688l1.649 1.956-1.649 1.954a5.769 5.769 0 0 0 1.952 2.639l2.3-.935 1.303 2.092a5.708 5.708 0 0 0 3.147-1.03l-.182-2.545 2.403-.594c.144-.507.247-1.029.247-1.581a5.756 5.756 0 0 0-.221-1.505zm46.875-57.863c-.141.181-.406.396-.876.396-.781 0-1.848-.604-3.084-1.305-.685-.388-1.393-.789-2.016-1.056-1.417-.607-2.572-.609-4.172-.612-.552-.001-1.147-.002-1.81-.029-1.313-.052-2.45-.023-3.563.002-1.096.027-2.174.051-3.364.004-1.334-.054-1.958.233-2.853.642-.617.283-1.318.604-2.392.882-2.345.608-5.437 1.876-7.076 3.613-.979 1.036-1.445 2.225-1.985 3.602-.317.81-.646 1.647-1.111 2.541-1.273 2.449-3.135 7.839-3.41 10.408a164.74 164.74 0 0 0-.213 2.234c-.275 3.03-.618 6.802-1.16 8.277-.789 2.141-4.274 6.629-4.31 6.675-.605.778-1.65 3.126-1.928 4.329-.336 1.458-3.496 4.546-5.139 5.511-1.007.593-2.791 2.387-4.224 3.826-.808.812-1.506 1.515-1.96 1.899-.686.581-1.639 1.911-2.561 3.199-.687.96-1.336 1.867-1.909 2.521-1.4 1.6-2.938 3.186-5.018 3.055-1.821-.096-2.378-1.07-2.967-2.102a18.427 18.427 0 0 0-.315-.538c-.379-.616-.488-1.22-.325-1.795.201-.702.798-1.307 1.776-1.795 1.263-.632 4.62-2.73 6.087-3.806 1.163-.854 2.542-2.889 3.283-3.982l.356-.521c.247-.353.575-1.146.955-2.062.587-1.42 1.319-3.186 2.302-4.748.748-1.188 1.445-2.07 1.954-2.715.409-.518.873-1.104.862-1.282-.062-.064-.464-.18-.729-.257-.505-.146-1.078-.312-1.511-.69-.343-.301-.42-.727-.354-1.185a703.426 703.426 0 0 0-4.851 4.445c-1.338 1.255-3.369 2.842-6.21 4.853-2.037 1.442-2.749 2.489-3.651 3.812l-.268.394c-.362.526-.848 1.279-1.393 2.121-1.031 1.597-2.314 3.582-3.335 4.924-1.519 1.992-3.1 6.255-3.272 7.376-.053.345-.029.751-.003 1.181.06.993.135 2.229-.784 3.3-.513.599-.926.843-1.426.843-.32 0-.626-.108-.979-.232-.432-.152-.969-.342-1.783-.44-2.542-.305-2.364-2.413-2.288-3.313.012-.137.022-.257.022-.354 0-.562.645-1.646 2.014-3.815.549-.872 1.068-1.695 1.311-2.18.494-.986 1.917-5.187 2.768-7.695.291-.858.53-1.563.671-1.965.644-1.823 4.54-5.741 5.145-6.271.558-.488 1.774-3.137 2.5-4.721.169-.368.325-.705.457-.986.296-.629.583-1.449.886-2.319.481-1.377.977-2.801 1.641-3.887.352-.575.875-1.547 1.43-2.574 1.158-2.146 2.47-4.579 3.333-5.574 2.688-3.101 4.38-5.332 5.031-6.632-.003 0 1.425-3.814 2.085-5.984.521-1.712 1.112-5.556 1.335-7.079a4.988 4.988 0 0 1-.331.011c-.632 0-1.111-.132-1.424-.393-.372-.31-.935-.373-1.567-.193-.644.184-1.724.291-3.878-.084-1.29-.225-2.048-.588-2.458-1.178-.451-.65-.373-1.462-.253-2.097.276-1.473 1.961-2.9 3.449-4.159.261-.221.515-.436.753-.644 1.627-1.424 4.764-3.072 6.476-3.833 1.535-.682 3.713-.574 6.792.364.528.161 1.273.331 2.074.494-.317-.816-.408-1.928-.484-2.875-.036-.435-.064-.815-.115-1.067-.177-.885-.328-4.871 1.213-6.346.999-.956 3.889-2.129 5.496-1.962 2.657.285 4.121 1.522 4.478 3.783.24 1.531.485 3.682.291 5.238-.123.98-.708 1.774-1.178 2.412-.318.433-.62.842-.649 1.136-.052.525.771.811.807.823-.002-.027 1.952.267 4.569.267 1.891 0 3.28.278 4.753.573.673.134 1.371.274 2.154.395 1.814.279 3.227.406 5.014.565.661.059 1.373.123 2.175.2 1.915.186 4.524.798 6.621 1.29 1.223.287 2.277.535 2.935.638.674.106 1.638.021 2.539-.077 1.23-.134 2.511-.206 3.331.102.397.149.934.546 1.229 1.588.411 1.464.186 3.862-.438 4.665zM52.486 18.586a.496.496 0 0 1-.494.458c-.152 0-2.572-.373-4.646-.791.557.894 2.1 2.949 4.722 3.323 2.601.373 3.946-1.564 4.426-2.467-.546-.312-1.051-.84-.975-1.623.058-.565.437-1.081.839-1.626.442-.601.9-1.223.991-1.947.05-.393.065-.836.061-1.296-.229-.682-.561-1.348-1.011-1.442-.542-.115-.563 1.412-.801 2.145-.183.564-.643.367-.643.367s.096-1.058 0-2.79-.77-2.021-3.079-2.213c-1.569-.131-3.082.39-3.901.74-.302 1.388-.272 3.083-.147 3.706.059.293.092.705.13 1.181.08.979.213 2.618.689 3.05.205.138 1.256.359 3.113.647.078.012.158.025.237.042l.038.005v.004c.261.063.478.185.451.527zm-14.178 9.335a.521.521 0 0 1 .096-.01c.082 0 .158.027.23.065.124-.53.242-.986.347-1.301.578-1.732-.289-2.694-.577-3.464-.289-.77-2.021-.77-3.945-1.443a4.993 4.993 0 0 0-2.323-.244l-.137.117c-1.293 1.095-2.903 2.458-3.115 3.585-.123.66-.095 1.076.094 1.348.24.346.833.596 1.812.767.997.173 1.756.258 2.322.258.491 0 .8-.06 1.114-.15.95-.271 1.85-.135 2.474.385.046.038.239.163.79.163.427.001.814-.075.818-.076zm-4.536 35.835c-.834-.526-2.721-1.715-4.316-2.73-1.618-1.031-4.161-.908-5.27-.794-.096.268-.19.536-.284.803-.312.895-.607 1.74-.925 2.415-.131.278-.284.612-.452.979-1.111 2.421-2.085 4.473-2.75 5.053-.417.365-1.439 1.396-2.445 2.53a2.633 2.633 0 0 0 1.252 1.715c.997.598 2.254.961 2.946 1.132l.11-.162.266-.39c.92-1.351 1.715-2.518 3.897-4.064 2.803-1.983 4.801-3.543 6.105-4.767a258.54 258.54 0 0 1 1.866-1.72zm17.573-4.257c-.673-.868-2.378-2.791-4.665-3.381-2.983-.77-3.753.096-5.196 1.828-1.113 1.335-1.454 3.783-1.552 4.838.516.168 1.001.405 1.081.961.083.583-.349 1.13-1.065 2.036l-.036.046c.242.667.777 1.744 1.861 2.319 1.218.645 3.184.862 4.107.931.009-.025.022-.057.028-.081.287-1.24 1.362-3.75 2.111-4.716.655-.84 2.275-3.028 3.326-4.781zm40.332-35.278c-.1-.355-.289-.805-.622-.93-.639-.239-1.718-.172-2.875-.044-.964.105-2.014.194-2.802.07-.692-.109-1.765-.361-3.006-.652-2.067-.485-4.642-1.089-6.49-1.269-.8-.077-1.508-.141-2.167-.199a93.888 93.888 0 0 1-3.604-.369c.15.422.332 1.132.432 2.288.102 1.177-.063 2.002-.24 2.525.831-.376 1.608-.675 3.05-.615 1.172.047 2.226.022 3.301-.005 1.135-.027 2.293-.056 3.626-.001.65.025 1.232.026 1.772.027 1.653.003 2.958.005 4.562.692.674.289 1.406.704 2.114 1.104.973.551 2.075 1.176 2.595 1.176.422-.437.745-2.415.354-3.798z"/></svg>